#!OML:ASF X:\für Bonn\!DataBase\2005_08_10_Bjorn_Final\c3d\bjorn.ASF
:FULLY-SPECIFIED
:DEGREES
205
root 1.15213 18.6739 4.53617 -175.644 2.04205 -175.737
lowerback 2.23813 0.394899 -0.543523
upperback 11.498 2.48838 -3.25371
thorax 11.1682 2.02634 -2.8866
lowerneck -5.38556 -0.424201 -2.14684
upperneck 9.0554 -0.74577 2.44398
head 3.93946 -0.388564 1.15324
rclavicle 4.85035e-014 6.83819e-014
rhumerus -24.0997 -8.00202 -86.4292
rradius 44.3065
rwrist -3.03622
rhand -10.8531 11.9182
rfingers 7.12502
rthumb 15.162 -17.5064
lclavicle 4.85035e-014 6.83819e-014
lhumerus -23.4131 -18.063 93.5202
lradius 64.3605
lwrist -17.12
lhand -30.1676 -4.89459
lfingers 7.12502
lthumb -3.47934 25.0568
rfemur -30.8313 -10.2184 25.3731
rtibia 43.5313
rfoot -10.4893 22.1606
rtoes -3.46147
lfemur -14.4077 8.23988 -11.6998
ltibia 39.7847
lfoot -25.8617 0.154641
ltoes -20.1148
206
root 1.12832 18.6867 4.59942 -175.487 1.67819 -175.989
lowerback 2.56197 0.310837 -0.891889
upperback 11.5654 2.44913 -3.41398
thorax 11.048 2.00541 -2.87303
lowerneck -5.51267 -0.517243 -2.32004
upperneck 8.79048 -0.860157 2.7251
head 3.87893 -0.431954 1.27166
rclavicle -9.54166e-015 6.36111e-015
rhumerus -24.2821 -7.87808 -86.6756
rradius 44.1591
rwrist -2.98167
rhand -10.9976 11.8666
rfingers 7.12502
rthumb 15.0228 -17.5684
lclavicle -9.54166e-015 6.36111e-015
lhumerus -22.4679 -19.2115 93.3064
lradius 64.513
lwrist -17.1326
lhand -29.7237 -5.38344
lfingers 7.12502
lthumb -3.05066 24.5745
rfemur -31.1706 -9.76866 25.0093
rtibia 43.4505
rfoot -10.5203 21.1939
rtoes -3.87953
lfemur -14.8644 8.27777 -12.0426
ltibia 39.7447
lfoot -25.7093 -0.401008
ltoes -20.1045
207
root 1.10497 18.6988 4.659 -175.326 1.36084 -176.219
lowerback 2.84109 0.239027 -1.22874
upperback 11.64 2.42436 -3.56126
thorax 10.9648 1.99195 -2.8493
lowerneck -5.66266 -0.61265 -2.4426
upperneck 8.56079 -0.977585 2.94602
head 3.83515 -0.478353 1.36093
rclavicle -1.82882e-014 -8.26944e-014
rhumerus -24.4611 -7.69034 -86.9166
rradius 44.0005
rwrist -2.97209
rhand -11.0927 11.7178
rfingers 7.12502
rthumb 14.9312 -17.724
lclavicle -1.82882e-014 -8.26944e-014
lhumerus -21.4901 -20.3017 93.056
lradius 64.6325
lwrist -17.2121
lhand -29.2005 -5.89244
lfingers 7.12502
lthumb -2.54536 24.0721
rfemur -31.5072 -9.40802 24.6759
rtibia 43.3784
rfoot -10.493 20.3678
rtoes -4.14296
lfemur -15.2901 8.33734 -12.3678
ltibia 39.6943
lfoot -25.5554 -0.96417
ltoes -19.8133
208
root 1.08171 18.7108 4.71655 -175.193 1.02988 -176.469
lowerback 3.13705 0.158478 -1.58424
upperback 11.7225 2.38891 -3.69983
thorax 10.8807 1.97256 -2.8065
lowerneck -5.80224 -0.694336 -2.54465
upperneck 8.3136 -1.07752 3.16035
head 3.78292 -0.516153 1.44496
rclavicle 2.38542e-015 -2.22639e-014
rhumerus -24.636 -7.44094 -87.1507
rradius 43.8083
rwrist -3.00349
rhand -11.1276 11.5398
rfingers 7.12502
rthumb 14.8975 -17.9046
lclavicle 2.38542e-015 -2.22639e-014
lhumerus -20.4974 -21.3503 92.7764
lradius 64.7547
lwrist -17.2909
lhand -28.5269 -6.3658
lfingers 7.12502
lthumb -1.89484 23.6055
rfemur -31.8048 -9.04999 24.3075
rtibia 43.3146
rfoot -10.5052 19.5122
rtoes -4.55579
lfemur -15.6683 8.34251 -12.7115
ltibia 39.6311
lfoot -25.4059 -1.52169
ltoes -19.5274
209
root 1.05819 18.7226 4.77051 -175.048 0.696664 -176.704
lowerback 3.40388 0.067598 -1.93276
upperback 11.7832 2.32468 -3.81045
thorax 10.7867 1.93393 -2.73894
lowerneck -5.86517 -0.75814 -2.70952
upperneck 8.06744 -1.15343 3.40211
head 3.71696 -0.544702 1.55046
rclavicle -1.03368e-014 -6.20208e-014
rhumerus -24.8675 -7.14255 -87.345
rradius 43.6112
rwrist -3.02005
rhand -11.0365 11.3792
rfingers 7.12502
rthumb 14.9853 -18.0586
lclavicle -1.03368e-014 -6.20208e-014
lhumerus -19.5232 -22.2772 92.5122
lradius 64.832
lwrist -17.4539
lhand -27.8509 -6.79057
lfingers 7.12502
lthumb -1.24194 23.1856
rfemur -32.1103 -8.77912 23.9609
rtibia 43.2586
rfoot -10.4746 18.7421
rtoes -4.78247
lfemur -16.0465 8.3892 -13.0422
ltibia 39.5575
lfoot -25.2227 -2.054
ltoes -19.428
210
root 1.03518 18.7347 4.81963 -174.926 0.389149 -176.955
lowerback 3.65851 -0.00573286 -2.29482
upperback 11.8466 2.28618 -3.92357
thorax 10.7061 1.90782 -2.66427
lowerneck -5.93719 -0.811351 -2.81566
upperneck 7.86577 -1.22049 3.61627
head 3.66753 -0.569048 1.63694
rclavicle -3.18055e-015 -1.59028e-014
rhumerus -25.106 -6.83757 -87.5395
rradius 43.3882
rwrist -3.05966
rhand -10.8978 11.2287
rfingers 7.12502
rthumb 15.119 -18.1991
lclavicle -3.18055e-015 -1.59028e-014
lhumerus -18.5123 -23.2165 92.2051
lradius 64.8558
lwrist -17.5212
lhand -27.1141 -7.28813
lfingers 7.12502
lthumb -0.53025 22.691
rfemur -32.383 -8.53867 23.5937
rtibia 43.2163
rfoot -10.4158 18.0036
rtoes -5.01245
lfemur -16.375 8.46161 -13.3894
ltibia 39.4714
lfoot -25.0457 -2.56589
ltoes -19.2542
211
root 1.01251 18.7465 4.86554 -174.814 0.100739 -177.219
lowerback 3.88462 -0.0788629 -2.67167
upperback 11.9135 2.24772 -4.0314
thorax 10.6474 1.87997 -2.57487
lowerneck -5.99782 -0.848809 -2.95186
upperneck 7.68371 -1.26783 3.85827
head 3.62329 -0.584261 1.73944
rclavicle -1.82882e-014 -3.33958e-014
rhumerus -25.3522 -6.54568 -87.7223
rradius 43.1355
rwrist -2.95807
rhand -10.6417 11.0871
rfingers 7.12502
rthumb 15.3656 -18.3219
lclavicle -1.82882e-014 -3.33958e-014
lhumerus -17.4574 -24.1054 91.8695
lradius 64.8245
lwrist -17.5102
lhand -26.3472 -7.82931
lfingers 7.12502
lthumb 0.210406 22.1503
rfemur -32.6402 -8.384 23.2279
rtibia 43.1849
rfoot -10.3829 17.3601
rtoes -5.34136
lfemur -16.6802 8.54381 -13.7548
ltibia 39.3797
lfoot -24.8705 -3.06027
ltoes -19.1758
212
root 0.990992 18.7578 4.90885 -174.722 -0.187292 -177.485
lowerback 4.12991 2.32035 -2.89105
upperback 12.1511 1.57422 -3.72069
thorax 10.6461 -0.0537316 -2.45593
lowerneck -6.00919 -0.879825 -3.09222
upperneck 7.49484 -1.30766 4.1001
head 3.56722 -0.59698 1.84285
rclavicle 1.59028e-015 4.92986e-014
rhumerus -25.6243 -6.21443 -87.9023
rradius 42.8786
rwrist -2.85453
rhand -10.3565 10.9671
rfingers 7.12502
rthumb 15.6404 -18.4207
lclavicle 1.59028e-015 4.92986e-014
lhumerus -16.4179 -24.9724 91.4957
lradius 64.7945
lwrist -17.3237
lhand -25.586 -8.40983
lfingers 7.12502
lthumb 0.945579 21.5678
rfemur -32.8695 -8.22472 22.8555
rtibia 43.1664
rfoot -10.3339 16.7128
rtoes -5.64828
lfemur -16.9578 8.73379 -14.1159
ltibia 39.2855
lfoot -24.6582 -3.55916
ltoes -19.2878
